<svg width="34" height="34" viewBox="0 0 34 34" fill="none" xmlns="http://www.w3.org/2000/svg">
<g clip-path="url(#clip0_1_131)">
<path fill-rule="evenodd" clip-rule="evenodd" d="M25.0638 9.5183C20.9319 5.0649 13.9718 4.80428 9.51839 8.93622C5.06499 13.0681 4.80437 20.0283 8.93631 24.4817C13.0682 28.9351 20.0284 29.1957 24.4818 25.0638C28.9352 20.9318 29.1958 13.9717 25.0638 9.5183ZM14.7479 20.4537C14.5535 20.6341 14.2954 20.7298 14.0304 20.7199C13.7653 20.71 13.5151 20.5952 13.3347 20.4008C13.1543 20.2063 13.0586 19.9482 13.0685 19.6832C13.0784 19.4182 13.1932 19.1679 13.3876 18.9875L15.5869 16.9471L13.5464 14.7479C13.366 14.5534 13.2702 14.2953 13.2802 14.0303C13.2901 13.7653 13.4049 13.515 13.5993 13.3346C13.7937 13.1542 14.0518 13.0585 14.3169 13.0684C14.5819 13.0783 14.8321 13.1931 15.0125 13.3876L17.053 15.5868L19.2522 13.5463C19.4466 13.3659 19.7047 13.2701 19.9698 13.2801C20.2348 13.29 20.485 13.4048 20.6654 13.5992C20.8458 13.7936 20.9416 14.0518 20.9317 14.3168C20.9217 14.5818 20.8069 14.8321 20.6125 15.0124L18.4133 17.0529L20.4538 19.2521C20.6341 19.4465 20.7299 19.7047 20.72 19.9697C20.7101 20.2347 20.5953 20.4849 20.4008 20.6653C20.2064 20.8457 19.9483 20.9415 19.6833 20.9316C19.4182 20.9216 19.168 20.8068 18.9876 20.6124L16.9472 18.4132L14.7479 20.4537Z" fill="black"/>
</g>
<defs>
<clipPath id="clip0_1_131">
<rect width="24" height="24" fill="white" transform="translate(17.635 0.0413208) rotate(47.1444)"/>
</clipPath>
</defs>
</svg>
