<svg width="16" height="16" viewBox="0 0 16 16" fill="none" xmlns="http://www.w3.org/2000/svg">
<path d="M7.99999 1.14288C8.58642 1.14288 9.15041 1.36827 9.57531 1.77244C10.0002 2.1766 10.2535 2.72862 10.2828 3.31431L10.2857 3.4286H13.1428C13.2885 3.42876 13.4286 3.48453 13.5345 3.58451C13.6404 3.68449 13.7041 3.82114 13.7127 3.96654C13.7212 4.11193 13.6739 4.2551 13.5804 4.36679C13.4869 4.47847 13.3543 4.55025 13.2097 4.56745L13.1428 4.57145H12.6577L11.9834 12.8875C11.9399 13.4241 11.696 13.9246 11.3002 14.2896C10.9045 14.6546 10.3858 14.8572 9.84742 14.8572H6.15256C5.61419 14.8572 5.09553 14.6546 4.69974 14.2896C4.30396 13.9246 4.06006 13.4241 4.01656 12.8875L3.34171 4.57145H2.85713C2.71717 4.57144 2.58208 4.52005 2.47749 4.42705C2.3729 4.33404 2.30608 4.20588 2.28971 4.06688L2.28571 4.00003C2.28572 3.86006 2.33711 3.72498 2.43011 3.62038C2.52312 3.51579 2.65128 3.44897 2.79028 3.4326L2.85713 3.4286H5.71428C5.71428 2.82239 5.95509 2.24101 6.38375 1.81235C6.8124 1.3837 7.39378 1.14288 7.99999 1.14288ZM6.71428 6.4286C6.61071 6.4286 6.51065 6.46611 6.4326 6.53418C6.35455 6.60225 6.30379 6.69628 6.28971 6.79888L6.28571 6.85717V11.4286L6.28971 11.4869C6.30382 11.5895 6.35459 11.6835 6.43264 11.7515C6.51069 11.8195 6.61073 11.857 6.71428 11.857C6.81782 11.857 6.91786 11.8195 6.99591 11.7515C7.07396 11.6835 7.12473 11.5895 7.13885 11.4869L7.14285 11.4286V6.85717L7.13885 6.79888C7.12476 6.69628 7.074 6.60225 6.99595 6.53418C6.9179 6.46611 6.81784 6.4286 6.71428 6.4286ZM9.28571 6.4286C9.18214 6.4286 9.08208 6.46611 9.00403 6.53418C8.92598 6.60225 8.87522 6.69628 8.86113 6.79888L8.85713 6.85717V11.4286L8.86113 11.4869C8.87525 11.5895 8.92602 11.6835 9.00407 11.7515C9.08212 11.8195 9.18216 11.857 9.28571 11.857C9.38925 11.857 9.48929 11.8195 9.56734 11.7515C9.64539 11.6835 9.69616 11.5895 9.71028 11.4869L9.71428 11.4286V6.85717L9.71028 6.79888C9.69619 6.69628 9.64543 6.60225 9.56738 6.53418C9.48933 6.46611 9.38927 6.4286 9.28571 6.4286ZM7.99999 2.28574C7.71166 2.28565 7.43395 2.39454 7.22254 2.5906C7.01112 2.78665 6.88162 3.05537 6.85999 3.34288L6.85713 3.4286H9.14285L9.13999 3.34288C9.11837 3.05537 8.98886 2.78665 8.77745 2.5906C8.56603 2.39454 8.28832 2.28565 7.99999 2.28574Z" fill="black"/>
</svg>
